# xmcd
# Track frame offsets:
# 150
# 10192
# 21734
# 43951
# 60587
# 74632
# 85802
# 98823
# 122067
# 138649
# 149861
# 163883
# 176753
# 190329
# 213432
# 230496
#
# Disc length: 3391 seconds
# Revision: 0
# Processed by: cddbd v1.4PL0 Copyright (c) Steve Scherf et al.
# Submitted via: VisiTrax 2.9.6.190 - For more info visit www.synapsa.com
#
DISCID=fe0d3d10
DTITLE=Don Edwards - Last of the Troubadours - Saddle Songs 2 [CD2]
DYEAR=2003
DGENRE=Cowboy
TTITLE0=Saddle Tramp
TTITLE1=Lonely Wanderer
TTITLE2=Following The Cow Trail
TTITLE3=Chant Of The Night Songs
TTITLE4=West Of The Round Corral
TTITLE5=Windy Bill
TTITLE6=Cowhands Last Ride
TTITLE7=The Cowboy's Home Sweet Home
TTITLE8=Utah Carroll
TTITLE9=Root Hog Or Die
TTITLE10=The Rancher Feeds Us All
TTITLE11=I Wanted To Die In The Desert
TTITLE12=The Dying Cowboy Of Rimrock Ranch
TTITLE13=The Campfire Has Gone Out
TTITLE14=Cowboy's Meditation
TTITLE15=Here's Lookin' At You
EXTD=
EXTT0=
EXTT1=
EXTT2=
EXTT3=
EXTT4=
EXTT5=
EXTT6=
EXTT7=
EXTT8=
EXTT9=
EXTT10=
EXTT11=
EXTT12=
EXTT13=
EXTT14=
EXTT15=
PLAYORDER=
